# xmcd
#
# Track frame offsets:
#	150
#	11350
#	25772
#	46802
#	63072
#	76150
#	88957
#	110292
#	123760
#	140825
#	151897
#	170942
#	184395
#
# Disc length: 2653 seconds
#
# Revision: 1
# Processed by: cddbd v1.5.2PL0 Copyright (c) Steve Scherf et al.
# Submitted via: audiograbber 1.83.01
#
DISCID=a10a5b0d
DTITLE=Tom Heyman - Deliver Me
DYEAR=2005
DGENRE=Country-Rock
TTITLE0=Alright
TTITLE1=Monkey Out of Me
TTITLE2=Deliver Me
TTITLE3=Bottles
TTITLE4=Cracy Ray
TTITLE5=Milk Cow Blues
TTITLE6=Black Mollies
TTITLE7=Fat Cities
TTITLE8=Fool For You
TTITLE9=Slip Away
TTITLE10=Haunted
TTITLE11=You Got What You Wanted
TTITLE12=Listen To the Rain
EXTD=
EXTT0=
EXTT1=
EXTT2=
EXTT3=
EXTT4=
EXTT5=
EXTT6=
EXTT7=
EXTT8=
EXTT9=
EXTT10=
EXTT11=
EXTT12=
PLAYORDER=
